<svg id="svg" xmlns="http://www.w3.org/2000/svg" xmlns:xlink="http://www.w3.org/1999/xlink" width="400" height="400" viewBox="0, 0, 400,400"><g id="svgg"><path id="path0" d="M10.760 66.178 C 20.033 98.221,20.084 138.528,10.910 183.124 C 9.670 189.151,9.834 189.298,21.325 192.496 C 52.457 201.161,87.654 237.554,92.823 266.424 C 94.021 273.113,94.887 273.964,101.576 275.029 C 136.480 280.584,168.899 299.526,190.214 326.817 C 200.801 340.373,199.199 340.373,209.786 326.817 C 231.088 299.543,263.537 280.576,298.372 275.039 C 305.407 273.920,305.843 273.389,307.913 263.433 C 313.856 234.835,347.411 201.198,378.675 192.496 C 390.166 189.298,390.330 189.151,389.090 183.124 C 379.916 138.528,379.967 98.221,389.240 66.178 L 390.635 61.356 372.817 62.643 C 329.394 65.780,286.982 87.927,283.094 109.497 C 280.611 123.269,274.003 134.087,264.320 140.227 C 250.313 149.110,248.780 148.379,247.421 132.175 C 246.267 118.411,239.953 100.111,234.916 95.930 C 232.892 94.250,229.642 95.875,221.090 102.840 C 203.178 117.430,196.822 117.430,178.910 102.840 C 170.358 95.875,167.108 94.250,165.084 95.930 C 160.047 100.111,153.733 118.411,152.579 132.175 C 151.220 148.379,149.687 149.110,135.680 140.227 C 125.997 134.087,119.389 123.269,116.906 109.497 C 113.018 87.927,70.606 65.780,27.183 62.643 L 9.365 61.356 10.760 66.178 M73.112 110.878 C 81.292 116.255,83.714 119.196,85.786 126.263 C 89.089 137.533,96.068 149.524,106.009 161.011 C 116.401 173.017,120.790 187.885,119.568 206.936 C 118.203 228.203,116.187 230.335,108.562 218.569 C 100.162 205.606,79.538 185.299,65.681 176.349 C 59.424 172.307,52.946 168.100,51.286 167.000 C 48.758 165.325,48.553 162.403,50.026 149.000 C 50.993 140.200,51.833 125.927,51.892 117.283 L 52.000 101.566 57.500 102.898 C 60.525 103.630,67.551 107.221,73.112 110.878 M348.621 127.500 C 349.303 141.525,350.421 155.760,351.107 159.133 C 352.298 164.994,351.753 165.615,338.826 173.133 C 323.072 182.294,299.135 204.795,290.382 218.670 L 284.282 228.339 282.152 220.670 C 276.521 200.392,281.477 175.469,294.023 160.974 C 303.913 149.547,310.914 137.526,314.189 126.347 C 316.713 117.735,326.243 108.977,338.401 104.099 C 347.131 100.596,347.337 101.068,348.621 127.500 M214.000 155.108 C 214.000 161.748,212.733 164.443,207.000 170.000 L 200.000 176.785 193.000 170.000 C 187.267 164.443,186.000 161.748,186.000 155.108 L 186.000 147.000 200.000 147.000 L 214.000 147.000 214.000 155.108 M184.456 195.453 L 200.000 210.906 215.544 195.453 L 231.088 180.000 244.143 180.000 L 257.198 180.000 257.239 200.500 C 257.272 216.486,258.263 223.804,261.740 233.733 C 264.193 240.737,265.930 246.660,265.600 246.897 C 265.270 247.134,259.707 249.431,253.238 252.002 C 241.807 256.546,219.691 270.352,206.500 281.178 L 200.000 286.513 193.500 281.178 C 180.309 270.352,158.193 256.546,146.762 252.002 C 140.293 249.431,134.730 247.134,134.400 246.897 C 134.070 246.660,135.807 240.737,138.260 233.733 C 141.737 223.804,142.728 216.486,142.761 200.500 L 142.802 180.000 155.857 180.000 L 168.912 180.000 184.456 195.453 " stroke="none" fill="#ffffff" fill-rule="evenodd"></path></g></svg>